<?xml version="1.0" encoding="UTF-8" standalone="no"?>
<svg
   width="75.514114"
   height="20.229797"
   viewBox="0 0 75.514114 20.229797"
   fill="none"
   version="1.1"
   id="svg26"
   xml:space="preserve"
   xmlns:xlink="http://www.w3.org/1999/xlink"
   xmlns="http://www.w3.org/2000/svg"
   xmlns:svg="http://www.w3.org/2000/svg"><defs
     id="defs26"><linearGradient
       id="linearGradient1"><stop
         style="stop-color:#990000;stop-opacity:1;"
         offset="0"
         id="stop1" /><stop
         style="stop-color:#cc0000;stop-opacity:1;"
         offset="0.30000001"
         id="stop3" /><stop
         style="stop-color:#ff0000;stop-opacity:1;"
         offset="1"
         id="stop2" /></linearGradient><linearGradient
       xlink:href="#linearGradient1"
       id="linearGradient2"
       x1="71.013184"
       y1="743.61237"
       x2="147.45148"
       y2="743.61237"
       gradientUnits="userSpaceOnUse" /></defs><g
     id="g4367"
     transform="matrix(1.0592188,0,0,1.0592188,-168.79061,-783.30561)"><g
       id="g4357"
       transform="matrix(0.93267759,0,0,0.93267759,13.12787,44.891086)"><g
         id="g4351"
         transform="translate(85.767672,11.386854)"><path
           id="rect4349"
           style="fill:url(#linearGradient2);fill-opacity:1;stroke:none;stroke-width:66.9223;stroke-linecap:square;paint-order:markers stroke fill"
           d="m 129.91899,751.04071 c 3.9801,-7.60968 10.91535,-13.00276 17.53248,-17.667 -3.93469,2.1818 -10.1759,5.1681 -16.56415,10.59783 -0.91114,0.77444 -2.15772,-0.13526 -3.1015,-6.52448 -0.324,2.40438 -1.61911,7.99767 2.13317,13.59365 z m -58.905804,-4.41165 c 0.109148,0.98234 0.272871,1.50989 0.673082,2.03744 0.65489,0.87319 1.800948,1.40074 3.019772,1.40074 2.019246,0 3.601897,-1.50989 3.601897,-3.43818 0,-1.52807 -0.764038,-2.3285 -2.801475,-2.947 -1.000527,-0.30926 -1.000527,-0.30926 -1.237016,-0.41841 -0.291062,-0.14553 -0.472976,-0.38202 -0.472976,-0.69127 0,-0.47298 0.400211,-0.8368 0.927761,-0.8368 0.50936,0 0.836805,0.27287 0.945953,0.80042 h 2.364882 c -0.03638,-0.855 -0.236488,-1.36436 -0.727656,-1.9101 -0.636699,-0.70946 -1.582652,-1.10967 -2.583179,-1.10967 -1.891905,0 -3.347217,1.34616 -3.347217,3.07434 0,1.47351 0.78223,2.31031 2.801475,2.98339 0.90957,0.30926 1.000527,0.34564 1.255207,0.50936 0.291062,0.18192 0.454785,0.45479 0.454785,0.78223 0,0.56393 -0.454785,0.98234 -1.091484,0.98234 -0.709465,0 -1.109675,-0.36383 -1.346164,-1.21883 z m 8.640924,3.20169 h 2.419457 V 739.75271 H 79.65411 Z m 0,-11.16952 h 2.419457 V 736.3873 H 79.65411 Z m 12.279177,1.09148 v 1.2734 c -0.764039,-1.01872 -1.837332,-1.50988 -3.292644,-1.50988 -2.85605,0 -4.966252,2.21935 -4.966252,5.20274 0,3.11073 2.073819,5.34827 4.948061,5.34827 1.418929,0 2.364882,-0.45479 3.310835,-1.56446 -0.09096,2.16477 -1.018719,3.21988 -2.819667,3.21988 -1.127867,0 -1.819141,-0.29107 -2.528605,-1.0733 h -2.746902 c 0.818613,2.01925 2.710519,3.20169 5.18455,3.20169 1.81914,0 3.25626,-0.6367 4.202213,-1.83733 0.709465,-0.92776 1.018718,-2.16478 1.018718,-4.09307 v -8.16794 z m -3.019773,1.98287 c 1.728183,0 2.910624,1.23701 2.910624,3.09253 0,1.81914 -1.127867,3.01978 -2.874241,3.01978 -1.728183,0 -2.837859,-1.18244 -2.837859,-3.01978 0,-1.85552 1.109676,-3.09253 2.801476,-3.09253 z m 7.203793,8.09517 h 2.419457 v -4.74796 c 0,-1.34616 0.09096,-1.92828 0.40021,-2.41945 0.38202,-0.60032 1.000527,-0.92776 1.782756,-0.92776 0.6367,0 1.12787,0.21829 1.45531,0.6367 0.32745,0.43659 0.47298,1.18244 0.47298,2.5286 v 4.92987 h 2.41946 v -5.40285 c 0,-1.80095 -0.18192,-2.67413 -0.72766,-3.45636 -0.65489,-0.94596 -1.74637,-1.45531 -3.14711,-1.45531 -1.16425,0 -1.946482,0.32744 -2.83786,1.20063 v -0.96415 h -2.237543 z m 20.654363,-6.94915 c -0.13685,-0.34487 -0.24034,-0.53794 -0.43828,-0.84321 -1.69236,-2.61009 -4.78626,-3.33579 -7.30477,-1.70281 -2.48798,1.61319 -3.1803,4.85889 -1.56712,7.34686 1.60329,2.47272 4.84985,3.09946 7.4294,1.42689 1.38899,-0.90061 2.14612,-2.10699 2.36832,-3.70367 0.0632,-0.60469 0.0493,-1.09431 -0.0905,-1.61077 l -2.21322,1.43505 c -0.12309,0.94704 -0.47835,1.50259 -1.31784,2.04691 -1.20583,0.78185 -2.50679,0.7148 -3.41411,-0.14952 z m -7.76709,2.49949 c -0.39204,-1.30682 0.0561,-2.42126 1.26195,-3.20311 1.25162,-0.81155 2.46183,-0.75069 3.42399,0.16478 z m 9.97931,4.44966 h 2.41946 v -7.87688 h 1.45531 v -2.20116 h -1.45531 v -3.36541 h -2.41946 v 3.36541 h -1.18244 v 2.20116 h 1.18244 z" /></g></g></g></svg>
